Twelve-2.ufo
<glyph name="percent" format="1">
  <advance width="1227"/>
  <unicode hex="0025"/>
  <outline>
    <contour>
      <point x="248" y="643" type="curve" smooth="yes"/>
      <point x="301" y="643"/>
      <point x="330" y="589"/>
      <point x="330" y="497" type="curve" smooth="yes"/>
      <point x="330" y="407"/>
      <point x="303" y="356"/>
      <point x="248" y="356" type="curve" smooth="yes"/>
      <point x="193" y="356"/>
      <point x="166" y="407"/>
      <point x="166" y="497" type="curve" smooth="yes"/>
      <point x="166" y="589"/>
      <point x="195" y="643"/>
    </contour>
    <contour>
      <point x="248" y="268" type="curve" smooth="yes"/>
      <point x="393" y="268"/>
      <point x="467" y="385"/>
      <point x="467" y="501" type="curve" smooth="yes"/>
      <point x="467" y="616"/>
      <point x="395" y="731"/>
      <point x="248" y="731" type="curve" smooth="yes"/>
      <point x="101" y="731"/>
      <point x="29" y="616"/>
      <point x="29" y="501" type="curve" smooth="yes"/>
      <point x="29" y="385"/>
      <point x="103" y="268"/>
    </contour>
    <contour>
      <point x="356" y="-40" type="line"/>
      <point x="512" y="-40" type="line"/>
      <point x="862" y="750" type="line"/>
      <point x="706" y="750" type="line"/>
    </contour>
    <contour>
      <point x="979" y="352" type="curve" smooth="yes"/>
      <point x="1032" y="352"/>
      <point x="1061" y="298"/>
      <point x="1061" y="206" type="curve" smooth="yes"/>
      <point x="1061" y="116"/>
      <point x="1034" y="65"/>
      <point x="979" y="65" type="curve" smooth="yes"/>
      <point x="924" y="65"/>
      <point x="897" y="116"/>
      <point x="897" y="206" type="curve" smooth="yes"/>
      <point x="897" y="298"/>
      <point x="926" y="352"/>
    </contour>
    <contour>
      <point x="979" y="-23" type="curve" smooth="yes"/>
      <point x="1124" y="-23"/>
      <point x="1198" y="94"/>
      <point x="1198" y="210" type="curve" smooth="yes"/>
      <point x="1198" y="325"/>
      <point x="1126" y="440"/>
      <point x="979" y="440" type="curve" smooth="yes"/>
      <point x="832" y="440"/>
      <point x="760" y="325"/>
      <point x="760" y="210" type="curve" smooth="yes"/>
      <point x="760" y="94"/>
      <point x="834" y="-23"/>
    </contour>
  </outline>
</glyph>
<glyph name="parenleft" format="1">
  <advance width="442"/>
  <unicode hex="0028"/>
  <outline>
    <contour>
      <point x="396" y="44" type="line"/>
      <point x="292" y="44"/>
      <point x="239" y="193"/>
      <point x="239" y="341" type="curve" smooth="yes"/>
      <point x="239" y="490"/>
      <point x="292" y="639"/>
      <point x="396" y="639" type="curve"/>
      <point x="396" y="734" type="line"/>
      <point x="148" y="734"/>
      <point x="23" y="537"/>
      <point x="23" y="341" type="curve" smooth="yes"/>
      <point x="23" y="144"/>
      <point x="148" y="-52"/>
      <point x="396" y="-52" type="curve"/>
    </contour>
  </outline>
</glyph>
<glyph name="parenright" format="1">
  <advance width="443"/>
  <unicode hex="0029"/>
  <outline>
    <contour>
      <point x="47" y="-52" type="line"/>
      <point x="295" y="-52"/>
      <point x="420" y="144"/>
      <point x="420" y="341" type="curve" smooth="yes"/>
      <point x="420" y="537"/>
      <point x="295" y="734"/>
      <point x="47" y="734" type="curve"/>
      <point x="47" y="639" type="line"/>
      <point x="151" y="639"/>
      <point x="204" y="490"/>
      <point x="204" y="341" type="curve" smooth="yes"/>
      <point x="204" y="193"/>
      <point x="151" y="44"/>
      <point x="47" y="44" type="curve"/>
    </contour>
  </outline>
</glyph>
<glyph name="plus" format="1">
  <advance width="539"/>
  <unicode hex="002B"/>
  <outline>
    <contour>
      <point x="16" y="194" type="line"/>
      <point x="191" y="194" type="line"/>
      <point x="191" y="10" type="line"/>
      <point x="350" y="10" type="line"/>
      <point x="350" y="194" type="line"/>
      <point x="523" y="194" type="line"/>
      <point x="523" y="343" type="line"/>
      <point x="350" y="343" type="line"/>
      <point x="350" y="527" type="line"/>
      <point x="191" y="527" type="line"/>
      <point x="191" y="343" type="line"/>
      <point x="16" y="343" type="line"/>
    </contour>
  </outline>
</glyph>
<glyph name="comma" format="1">
  <advance width="272"/>
  <unicode hex="002C"/>
  <outline>
    <contour>
      <point x="51" y="-160" type="line"/>
      <point x="120" y="-160"/>
      <point x="237" y="-126"/>
      <point x="237" y="12" type="curve" smooth="yes"/>
      <point x="237" y="171" type="line"/>
      <point x="51" y="171" type="line"/>
      <point x="51" y="0" type="line"/>
      <point x="120" y="0" type="line"/>
      <point x="120" y="-22"/>
      <point x="117" y="-41"/>
      <point x="51" y="-63" type="curve"/>
    </contour>
  </outline>
</glyph>
<glyph name="slash" format="1">
  <advance width="519"/>
  <unicode hex="002F"/>
  <outline>
    <contour>
      <point x="12" y="-40" type="line"/>
      <point x="208" y="-40" type="line"/>
      <point x="508" y="750" type="line"/>
      <point x="312" y="750" type="line"/>
    </contour>
  </outline>
</glyph>
<glyph name="zero" format="1">
  <advance width="788"/>
  <unicode hex="0030"/>
  <outline>
    <contour>
      <point x="394" y="105" type="curve" smooth="yes"/>
      <point x="277" y="105"/>
      <point x="250" y="225"/>
      <point x="250" y="348" type="curve" smooth="yes"/>
      <point x="250" y="474"/>
      <point x="280" y="603"/>
      <point x="394" y="603" type="curve" smooth="yes"/>
      <point x="508" y="603"/>
      <point x="538" y="474"/>
      <point x="538" y="348" type="curve" smooth="yes"/>
      <point x="538" y="225"/>
      <point x="511" y="105"/>
    </contour>
    <contour>
      <point x="394" y="-23" type="curve" smooth="yes"/>
      <point x="653" y="-23"/>
      <point x="751" y="164"/>
      <point x="751" y="351" type="curve" smooth="yes"/>
      <point x="751" y="541"/>
      <point x="651" y="731"/>
      <point x="394" y="731" type="curve" smooth="yes"/>
      <point x="137" y="731"/>
      <point x="37" y="541"/>
      <point x="37" y="351" type="curve" smooth="yes"/>
      <point x="37" y="164"/>
      <point x="135" y="-23"/>
    </contour>
  </outline>
</glyph>
<glyph name="one" format="1">
  <advance width="428"/>
  <unicode hex="0031"/>
  <outline>
    <contour>
      <point x="378" y="0" type="line"/>
      <point x="378" y="708" type="line"/>
      <point x="182" y="708" type="line"/>
      <point x="15" y="638" type="line"/>
      <point x="15" y="498" type="line"/>
      <point x="182" y="568" type="line"/>
      <point x="182" y="0" type="line"/>
    </contour>
  </outline>
</glyph>
<glyph name="two" format="1">
  <advance width="616"/>
  <unicode hex="0032"/>
  <outline>
    <contour>
      <point x="60" y="158" type="curve"/>
      <point x="60" y="0" type="line"/>
      <point x="569" y="0" type="line"/>
      <point x="569" y="140" type="line"/>
      <point x="281" y="140" type="line"/>
      <point x="430" y="224"/>
      <point x="574" y="321"/>
      <point x="574" y="497" type="curve" smooth="yes"/>
      <point x="574" y="629"/>
      <point x="475" y="731"/>
      <point x="295" y="731" type="curve" smooth="yes"/>
      <point x="171" y="731"/>
      <point x="40" y="668"/>
      <point x="40" y="538" type="curve" smooth="yes"/>
      <point x="40" y="523"/>
      <point x="41" y="507"/>
      <point x="46" y="491" type="curve"/>
      <point x="204" y="491" type="line"/>
      <point x="202" y="499"/>
      <point x="202" y="506"/>
      <point x="202" y="513" type="curve" smooth="yes"/>
      <point x="202" y="572"/>
      <point x="247" y="607"/>
      <point x="292" y="607" type="curve" smooth="yes"/>
      <point x="339" y="607"/>
      <point x="380" y="575"/>
      <point x="380" y="502" type="curve" smooth="yes"/>
      <point x="380" y="367"/>
      <point x="60" y="164"/>
    </contour>
  </outline>
</glyph>
<glyph name="eight" format="1">
  <advance width="725"/>
  <unicode hex="0038"/>
  <outline>
    <contour>
      <point x="657" y="533" type="curve" smooth="yes"/>
      <point x="657" y="631"/>
      <point x="547" y="731"/>
      <point x="363" y="731" type="curve" smooth="yes"/>
      <point x="167" y="731"/>
      <point x="69" y="624"/>
      <point x="69" y="517" type="curve" smooth="yes"/>
      <point x="69" y="434"/>
      <point x="115" y="384"/>
      <point x="176" y="350" type="curve"/>
      <point x="80" y="308"/>
      <point x="36" y="244"/>
      <point x="36" y="181" type="curve" smooth="yes"/>
      <point x="36" y="77"/>
      <point x="159" y="-23"/>
      <point x="363" y="-23" type="curve" smooth="yes"/>
      <point x="578" y="-23"/>
      <point x="689" y="77"/>
      <point x="689" y="188" type="curve" smooth="yes"/>
      <point x="689" y="290"/>
      <point x="620" y="345"/>
      <point x="537" y="383" type="curve"/>
      <point x="619" y="419"/>
      <point x="657" y="475"/>
    </contour>
    <contour>
      <point x="495" y="178" type="curve" smooth="yes"/>
      <point x="495" y="136"/>
      <point x="455" y="93"/>
      <point x="363" y="93" type="curve" smooth="yes"/>
      <point x="281" y="93"/>
      <point x="233" y="135"/>
      <point x="233" y="189" type="curve" smooth="yes"/>
      <point x="233" y="226"/>
      <point x="252" y="268"/>
      <point x="305" y="299" type="curve"/>
      <point x="403" y="268"/>
      <point x="495" y="245"/>
    </contour>
    <contour>
      <point x="254" y="539" type="curve" smooth="yes"/>
      <point x="254" y="577"/>
      <point x="291" y="615"/>
      <point x="363" y="615" type="curve" smooth="yes"/>
      <point x="438" y="615"/>
      <point x="472" y="576"/>
      <point x="472" y="531" type="curve" smooth="yes"/>
      <point x="472" y="495"/>
      <point x="449" y="455"/>
      <point x="408" y="430" type="curve"/>
      <point x="324" y="458"/>
      <point x="254" y="484"/>
    </contour>
  </outline>
</glyph>
<glyph name="colon" format="1">
  <advance width="287"/>
  <unicode hex="003A"/>
  <outline>
    <contour>
      <point x="237" y="556" type="line"/>
      <point x="51" y="556" type="line"/>
      <point x="51" y="385" type="line"/>
      <point x="237" y="385" type="line"/>
    </contour>
    <contour>
      <point x="237" y="214" type="line"/>
      <point x="51" y="214" type="line"/>
      <point x="51" y="43" type="line"/>
      <point x="237" y="43" type="line"/>
    </contour>
  </outline>
</glyph>
<glyph name="semicolon" format="1">
  <advance width="277"/>
  <unicode hex="003B"/>
  <outline>
    <contour>
      <point x="51" y="-117" type="line"/>
      <point x="120" y="-117"/>
      <point x="237" y="-83"/>
      <point x="237" y="55" type="curve" smooth="yes"/>
      <point x="237" y="214" type="line"/>
      <point x="51" y="214" type="line"/>
      <point x="51" y="43" type="line"/>
      <point x="120" y="43" type="line"/>
      <point x="120" y="21"/>
      <point x="117" y="2"/>
      <point x="51" y="-20" type="curve"/>
    </contour>
    <contour>
      <point x="237" y="556" type="line"/>
      <point x="51" y="556" type="line"/>
      <point x="51" y="385" type="line"/>
      <point x="237" y="385" type="line"/>
    </contour>
  </outline>
</glyph>
<glyph name="equal" format="1">
  <advance width="529"/>
  <unicode hex="003D"/>
  <outline>
    <contour>
      <point x="478" y="232" type="line"/>
      <point x="51" y="232" type="line"/>
      <point x="51" y="93" type="line"/>
      <point x="478" y="93" type="line"/>
    </contour>
    <contour>
      <point x="478" y="450" type="line"/>
      <point x="51" y="450" type="line"/>
      <point x="51" y="311" type="line"/>
      <point x="478" y="311" type="line"/>
    </contour>
  </outline>
</glyph>
<glyph name="A" format="1">
  <advance width="891"/>
  <unicode hex="0041"/>
  <outline>
    <contour>
      <point x="24" y="0" type="line"/>
      <point x="220" y="0" type="line"/>
      <point x="279" y="140" type="line"/>
      <point x="578" y="140" type="line"/>
      <point x="637" y="0" type="line"/>
      <point x="867" y="0" type="line"/>
      <point x="552" y="709" type="line"/>
      <point x="339" y="709" type="line"/>
    </contour>
    <contour>
      <point x="430" y="493" type="line"/>
      <point x="527" y="262" type="line"/>
      <point x="331" y="262" type="line"/>
    </contour>
  </outline>
</glyph>
<glyph name="B" format="1">
  <advance width="813"/>
  <unicode hex="0042"/>
  <outline>
    <contour>
      <point x="52" y="0" type="line"/>
      <point x="441" y="0" type="line" smooth="yes"/>
      <point x="575" y="0"/>
      <point x="774" y="20"/>
      <point x="774" y="177" type="curve" smooth="yes"/>
      <point x="774" y="291"/>
      <point x="665" y="337"/>
      <point x="567" y="355" type="curve"/>
      <point x="648" y="368"/>
      <point x="740" y="413"/>
      <point x="740" y="516" type="curve" smooth="yes"/>
      <point x="740" y="631"/>
      <point x="618" y="709"/>
      <point x="510" y="709" type="curve" smooth="yes"/>
      <point x="52" y="709" type="line"/>
    </contour>
    <contour>
      <point x="247" y="297" type="line"/>
      <point x="476" y="297" type="line" smooth="yes"/>
      <point x="530" y="297"/>
      <point x="568" y="249"/>
      <point x="568" y="198" type="curve" smooth="yes"/>
      <point x="568" y="109"/>
      <point x="469" y="113"/>
      <point x="403" y="113" type="curve" smooth="yes"/>
      <point x="247" y="113" type="line"/>
    </contour>
    <contour>
      <point x="258" y="583" type="line"/>
      <point x="452" y="583" type="line" smooth="yes"/>
      <point x="505" y="583"/>
      <point x="534" y="540"/>
      <point x="534" y="494" type="curve" smooth="yes"/>
      <point x="534" y="465"/>
      <point x="510" y="423"/>
      <point x="476" y="423" type="curve" smooth="yes"/>
      <point x="258" y="423" type="line"/>
    </contour>
  </outline>
</glyph>
<glyph name="C" format="1">
  <advance width="794"/>
  <unicode hex="0043"/>
  <outline>
    <contour>
      <point x="36" y="350" type="curve" smooth="yes"/>
      <point x="36" y="121"/>
      <point x="193" y="-23"/>
      <point x="429" y="-23" type="curve" smooth="yes"/>
      <point x="601" y="-23"/>
      <point x="715" y="47"/>
      <point x="761" y="205" type="curve"/>
      <point x="605" y="246" type="line"/>
      <point x="578" y="172"/>
      <point x="557" y="105"/>
      <point x="438" y="105" type="curve" smooth="yes"/>
      <point x="283" y="105"/>
      <point x="249" y="223"/>
      <point x="249" y="351" type="curve" smooth="yes"/>
      <point x="249" y="483"/>
      <point x="293" y="603"/>
      <point x="437" y="603" type="curve" smooth="yes"/>
      <point x="549" y="603"/>
      <point x="573" y="532"/>
      <point x="598" y="454" type="curve"/>
      <point x="754" y="495" type="line"/>
      <point x="709" y="660"/>
      <point x="601" y="731"/>
      <point x="434" y="731" type="curve" smooth="yes"/>
      <point x="198" y="731"/>
      <point x="36" y="585"/>
    </contour>
  </outline>
</glyph>
<glyph name="D" format="1">
  <advance width="839"/>
  <unicode hex="0044"/>
  <outline>
    <contour>
      <point x="52" y="709" type="line"/>
      <point x="52" y="0" type="line"/>
      <point x="411" y="0" type="line" smooth="yes"/>
      <point x="652" y="0"/>
      <point x="802" y="140"/>
      <point x="802" y="351" type="curve" smooth="yes"/>
      <point x="802" y="571"/>
      <point x="651" y="709"/>
      <point x="393" y="709" type="curve" smooth="yes"/>
    </contour>
    <contour>
      <point x="244" y="586" type="line"/>
      <point x="323" y="586" type="line" smooth="yes"/>
      <point x="512" y="586"/>
      <point x="591" y="538"/>
      <point x="591" y="351" type="curve" smooth="yes"/>
      <point x="591" y="123"/>
      <point x="472" y="119"/>
      <point x="245" y="124" type="curve"/>
    </contour>
  </outline>
</glyph>
<glyph name="E" format="1">
  <advance width="781"/>
  <unicode hex="0045"/>
  <outline>
    <contour>
      <point x="52" y="0" type="line"/>
      <point x="731" y="0" type="line"/>
      <point x="731" y="136" type="line"/>
      <point x="256" y="136" type="line"/>
      <point x="256" y="301" type="line"/>
      <point x="635" y="301" type="line"/>
      <point x="635" y="422" type="line"/>
      <point x="256" y="422" type="line"/>
      <point x="256" y="582" type="line"/>
      <point x="712" y="582" type="line"/>
      <point x="712" y="709" type="line"/>
      <point x="52" y="709" type="line"/>
    </contour>
  </outline>
</glyph>
<glyph name="F" format="1">
  <advance width="693"/>
  <unicode hex="0046"/>
  <outline>
    <contour>
      <point x="52" y="709" type="line"/>
      <point x="52" y="0" type="line"/>
      <point x="241" y="0" type="line"/>
      <point x="241" y="258" type="line"/>
      <point x="579" y="258" type="line"/>
      <point x="579" y="395" type="line"/>
      <point x="241" y="395" type="line"/>
      <point x="241" y="560" type="line"/>
      <point x="682" y="560" type="line"/>
      <point x="682" y="709" type="line"/>
    </contour>
  </outline>
</glyph>
<glyph name="G" format="1">
  <advance width="819"/>
  <unicode hex="0047"/>
  <outline>
    <contour>
      <point x="37" y="348" type="curve" smooth="yes"/>
      <point x="37" y="98"/>
      <point x="193" y="-23"/>
      <point x="412" y="-23" type="curve" smooth="yes"/>
      <point x="524" y="-23"/>
      <point x="607" y="-1"/>
      <point x="676" y="92" type="curve"/>
      <point x="727" y="-21" type="line"/>
      <point x="776" y="-21" type="line"/>
      <point x="776" y="361" type="line"/>
      <point x="443" y="361" type="line"/>
      <point x="443" y="255" type="line"/>
      <point x="597" y="255" type="line"/>
      <point x="597" y="144"/>
      <point x="530" y="92"/>
      <point x="449" y="92" type="curve" smooth="yes"/>
      <point x="298" y="92"/>
      <point x="250" y="188"/>
      <point x="250" y="338" type="curve" smooth="yes"/>
      <point x="250" y="473"/>
      <point x="278" y="603"/>
      <point x="449" y="603" type="curve" smooth="yes"/>
      <point x="559" y="603"/>
      <point x="583" y="535"/>
      <point x="609" y="464" type="curve"/>
      <point x="765" y="505" type="line"/>
      <point x="719" y="663"/>
      <point x="611" y="731"/>
      <point x="439" y="731" type="curve" smooth="yes"/>
      <point x="203" y="731"/>
      <point x="37" y="583"/>
    </contour>
  </outline>
</glyph>
<glyph name="H" format="1">
  <advance width="803"/>
  <unicode hex="0048"/>
  <outline>
    <contour>
      <point x="51" y="709" type="line"/>
      <point x="51" y="0" type="line"/>
      <point x="247" y="0" type="line"/>
      <point x="247" y="294" type="line"/>
      <point x="554" y="294" type="line"/>
      <point x="554" y="0" type="line"/>
      <point x="752" y="0" type="line"/>
      <point x="752" y="709" type="line"/>
      <point x="562" y="709" type="line"/>
      <point x="562" y="434" type="line"/>
      <point x="247" y="434" type="line"/>
      <point x="247" y="709" type="line"/>
    </contour>
  </outline>
</glyph>
<glyph name="I" format="1">
  <advance width="299"/>
  <unicode hex="0049"/>
  <outline>
    <contour>
      <point x="248" y="709" type="line"/>
      <point x="52" y="709" type="line"/>
      <point x="52" y="0" type="line"/>
      <point x="248" y="0" type="line"/>
    </contour>
  </outline>
</glyph>
<glyph name="J" format="1">
  <advance width="459"/>
  <unicode hex="004A"/>
  <outline>
    <contour>
      <point x="411" y="709" type="line"/>
      <point x="215" y="709" type="line"/>
      <point x="215" y="169" type="line" smooth="yes"/>
      <point x="215" y="150"/>
      <point x="222" y="109"/>
      <point x="222" y="75" type="curve" smooth="yes"/>
      <point x="222" y="42"/>
      <point x="216" y="17"/>
      <point x="192" y="17" type="curve" smooth="yes"/>
      <point x="172" y="17"/>
      <point x="162" y="33"/>
      <point x="162" y="65" type="curve" smooth="yes"/>
      <point x="162" y="73"/>
      <point x="163" y="84"/>
      <point x="165" y="93" type="curve"/>
      <point x="28" y="93" type="line"/>
      <point x="19" y="71"/>
      <point x="13" y="47"/>
      <point x="13" y="25" type="curve" smooth="yes"/>
      <point x="13" y="-38"/>
      <point x="72" y="-88"/>
      <point x="213" y="-88" type="curve" smooth="yes"/>
      <point x="286" y="-88"/>
      <point x="411" y="-56"/>
      <point x="411" y="74" type="curve" smooth="yes"/>
    </contour>
  </outline>
</glyph>
<glyph name="K" format="1">
  <advance width="813"/>
  <unicode hex="004B"/>
  <outline>
    <contour>
      <point x="739" y="709" type="line"/>
      <point x="524" y="709" type="line"/>
      <point x="248" y="396" type="line"/>
      <point x="248" y="709" type="line"/>
      <point x="52" y="709" type="line"/>
      <point x="52" y="0" type="line"/>
      <point x="248" y="0" type="line"/>
      <point x="248" y="315" type="line"/>
      <point x="532" y="0" type="line"/>
      <point x="777" y="0" type="line"/>
      <point x="432" y="371" type="line"/>
    </contour>
  </outline>
</glyph>
<glyph name="L" format="1">
  <advance width="571"/>
  <unicode hex="004C"/>
  <outline>
    <contour>
      <point x="52" y="0" type="line"/>
      <point x="560" y="0" type="line"/>
      <point x="560" y="140" type="line"/>
      <point x="248" y="140" type="line"/>
      <point x="248" y="709" type="line"/>
      <point x="52" y="709" type="line"/>
    </contour>
  </outline>
</glyph>
<glyph name="M" format="1">
  <advance width="945"/>
  <unicode hex="004D"/>
  <outline>
    <contour>
      <point x="52" y="709" type="line"/>
      <point x="52" y="0" type="line"/>
      <point x="207" y="0" type="line"/>
      <point x="207" y="558" type="line"/>
      <point x="383" y="0" type="line"/>
      <point x="529" y="0" type="line"/>
      <point x="727" y="558" type="line"/>
      <point x="727" y="0" type="line"/>
      <point x="893" y="0" type="line"/>
      <point x="893" y="709" type="line"/>
      <point x="630" y="709" type="line"/>
      <point x="475" y="271" type="line"/>
      <point x="345" y="709" type="line"/>
    </contour>
  </outline>
</glyph>
<glyph name="N" format="1">
  <advance width="814"/>
  <unicode hex="004E"/>
  <outline>
    <contour>
      <point x="52" y="709" type="line"/>
      <point x="52" y="0" type="line"/>
      <point x="222" y="0" type="line"/>
      <point x="222" y="476" type="line"/>
      <point x="574" y="0" type="line"/>
      <point x="762" y="0" type="line"/>
      <point x="762" y="709" type="line"/>
      <point x="600" y="709" type="line"/>
      <point x="600" y="279" type="line"/>
      <point x="289" y="709" type="line"/>
    </contour>
  </outline>
</glyph>
<glyph name="O" format="1">
  <advance width="860"/>
  <unicode hex="004F"/>
  <outline>
    <contour>
      <point x="430" y="105" type="curve" smooth="yes"/>
      <point x="285" y="105"/>
      <point x="250" y="223"/>
      <point x="250" y="351" type="curve" smooth="yes"/>
      <point x="250" y="483"/>
      <point x="296" y="603"/>
      <point x="430" y="603" type="curve" smooth="yes"/>
      <point x="564" y="603"/>
      <point x="610" y="483"/>
      <point x="610" y="351" type="curve" smooth="yes"/>
      <point x="610" y="223"/>
      <point x="575" y="105"/>
    </contour>
    <contour>
      <point x="430" y="-23" type="curve" smooth="yes"/>
      <point x="666" y="-23"/>
      <point x="823" y="121"/>
      <point x="823" y="350" type="curve" smooth="yes"/>
      <point x="823" y="585"/>
      <point x="666" y="731"/>
      <point x="430" y="731" type="curve" smooth="yes"/>
      <point x="194" y="731"/>
      <point x="37" y="585"/>
      <point x="37" y="350" type="curve" smooth="yes"/>
      <point x="37" y="121"/>
      <point x="194" y="-23"/>
    </contour>
  </outline>
</glyph>
<glyph name="P" format="1">
  <advance width="760"/>
  <unicode hex="0050"/>
  <outline>
    <contour>
      <point x="52" y="709" type="line"/>
      <point x="52" y="0" type="line"/>
      <point x="239" y="0" type="line"/>
      <point x="239" y="235" type="line"/>
      <point x="473" y="235" type="line" smooth="yes"/>
      <point x="619" y="235"/>
      <point x="745" y="292"/>
      <point x="745" y="467" type="curve" smooth="yes"/>
      <point x="745" y="628"/>
      <point x="619" y="709"/>
      <point x="473" y="709" type="curve" smooth="yes"/>
    </contour>
    <contour>
      <point x="245" y="593" type="line"/>
      <point x="416" y="593" type="line" smooth="yes"/>
      <point x="514" y="593"/>
      <point x="543" y="537"/>
      <point x="543" y="467" type="curve" smooth="yes"/>
      <point x="543" y="394"/>
      <point x="503" y="356"/>
      <point x="416" y="356" type="curve" smooth="yes"/>
      <point x="245" y="356" type="line"/>
    </contour>
  </outline>
</glyph>
<glyph name="Q" format="1">
  <advance width="858"/>
  <unicode hex="0051"/>
  <outline>
    <contour>
      <point x="429" y="105" type="curve" smooth="yes"/>
      <point x="284" y="105"/>
      <point x="249" y="223"/>
      <point x="249" y="351" type="curve" smooth="yes"/>
      <point x="249" y="483"/>
      <point x="295" y="603"/>
      <point x="429" y="603" type="curve" smooth="yes"/>
      <point x="563" y="603"/>
      <point x="609" y="483"/>
      <point x="609" y="351" type="curve" smooth="yes"/>
      <point x="609" y="223"/>
      <point x="574" y="105"/>
    </contour>
    <contour>
      <point x="429" y="-23" type="curve" smooth="yes"/>
      <point x="665" y="-23"/>
      <point x="822" y="121"/>
      <point x="822" y="350" type="curve" smooth="yes"/>
      <point x="822" y="585"/>
      <point x="665" y="731"/>
      <point x="429" y="731" type="curve" smooth="yes"/>
      <point x="193" y="731"/>
      <point x="36" y="585"/>
      <point x="36" y="350" type="curve" smooth="yes"/>
      <point x="36" y="121"/>
      <point x="193" y="-23"/>
    </contour>
  </outline>
</glyph>
<glyph name="R" format="1">
  <advance width="826"/>
  <unicode hex="0052"/>
  <outline>
    <contour>
      <point x="52" y="709" type="line"/>
      <point x="52" y="0" type="line"/>
      <point x="244" y="0" type="line"/>
      <point x="244" y="259" type="line"/>
      <point x="430" y="259" type="line" smooth="yes"/>
      <point x="505" y="259"/>
      <point x="475" y="65"/>
      <point x="556" y="0" type="curve"/>
      <point x="789" y="0" type="line"/>
      <point x="690" y="58"/>
      <point x="724" y="287"/>
      <point x="574" y="326" type="curve"/>
      <point x="677" y="344"/>
      <point x="747" y="399"/>
      <point x="747" y="509" type="curve" smooth="yes"/>
      <point x="747" y="623"/>
      <point x="667" y="709"/>
      <point x="516" y="709" type="curve" smooth="yes"/>
    </contour>
    <contour>
      <point x="244" y="595" type="line"/>
      <point x="428" y="595" type="line" smooth="yes"/>
      <point x="500" y="595"/>
      <point x="556" y="586"/>
      <point x="556" y="492" type="curve" smooth="yes"/>
      <point x="556" y="447"/>
      <point x="535" y="394"/>
      <point x="478" y="394" type="curve" smooth="yes"/>
      <point x="244" y="394" type="line"/>
    </contour>
  </outline>
</glyph>
<glyph name="S" format="1">
  <advance width="749"/>
  <unicode hex="0053"/>
  <outline>
    <contour>
      <point x="34" y="98" type="line"/>
      <point x="161" y="14"/>
      <point x="289" y="-23"/>
      <point x="435" y="-23" type="curve" smooth="yes"/>
      <point x="568" y="-23"/>
      <point x="712" y="57"/>
      <point x="712" y="203" type="curve" smooth="yes"/>
      <point x="712" y="467"/>
      <point x="242" y="408"/>
      <point x="242" y="540" type="curve" smooth="yes"/>
      <point x="242" y="579"/>
      <point x="285" y="595"/>
      <point x="342" y="595" type="curve" smooth="yes"/>
      <point x="436" y="595"/>
      <point x="570" y="554"/>
      <point x="623" y="509" type="curve"/>
      <point x="693" y="620" type="line"/>
      <point x="587" y="699"/>
      <point x="476" y="729"/>
      <point x="345" y="731" type="curve"/>
      <point x="181" y="731"/>
      <point x="63" y="658"/>
      <point x="63" y="509" type="curve" smooth="yes"/>
      <point x="63" y="250"/>
      <point x="520" y="301"/>
      <point x="520" y="184" type="curve" smooth="yes"/>
      <point x="520" y="139"/>
      <point x="479" y="121"/>
      <point x="420" y="121" type="curve" smooth="yes"/>
      <point x="328" y="121"/>
      <point x="193" y="165"/>
      <point x="103" y="222" type="curve"/>
    </contour>
  </outline>
</glyph>
<glyph name="T" format="1">
  <advance width="719"/>
  <unicode hex="0054"/>
  <outline>
    <contour>
      <point x="25" y="709" type="line"/>
      <point x="25" y="568" type="line"/>
      <point x="262" y="568" type="line"/>
      <point x="262" y="0" type="line"/>
      <point x="458" y="0" type="line"/>
      <point x="458" y="568" type="line"/>
      <point x="695" y="568" type="line"/>
      <point x="695" y="709" type="line"/>
    </contour>
  </outline>
</glyph>
<glyph name="U" format="1">
  <advance width="778"/>
  <unicode hex="0055"/>
  <outline>
    <contour>
      <point x="393" y="-17" type="curve" smooth="yes"/>
      <point x="599" y="-17"/>
      <point x="732" y="73"/>
      <point x="732" y="301" type="curve" smooth="yes"/>
      <point x="732" y="709" type="line"/>
      <point x="555" y="709" type="line"/>
      <point x="555" y="290" type="line" smooth="yes"/>
      <point x="555" y="191"/>
      <point x="521" y="131"/>
      <point x="400" y="131" type="curve" smooth="yes"/>
      <point x="276" y="131"/>
      <point x="241" y="191"/>
      <point x="241" y="290" type="curve" smooth="yes"/>
      <point x="241" y="709" type="line"/>
      <point x="46" y="709" type="line"/>
      <point x="46" y="301" type="line" smooth="yes"/>
      <point x="46" y="73"/>
      <point x="188" y="-17"/>
    </contour>
  </outline>
</glyph>
<glyph name="V" format="1">
  <advance width="831"/>
  <unicode hex="0056"/>
  <outline>
    <contour>
      <point x="807" y="709" type="line"/>
      <point x="611" y="709" type="line"/>
      <point x="434" y="239" type="line"/>
      <point x="254" y="709" type="line"/>
      <point x="24" y="709" type="line"/>
      <point x="309" y="0" type="line"/>
      <point x="522" y="0" type="line"/>
    </contour>
  </outline>
</glyph>
<glyph name="W" format="1">
  <advance width="1117"/>
  <unicode hex="0057"/>
  <outline>
    <contour>
      <point x="250" y="0" type="line"/>
      <point x="432" y="0" type="line"/>
      <point x="555" y="394" type="line"/>
      <point x="677" y="0" type="line"/>
      <point x="876" y="0" type="line"/>
      <point x="1081" y="709" type="line"/>
      <point x="899" y="709" type="line"/>
      <point x="795" y="324" type="line"/>
      <point x="682" y="709" type="line"/>
      <point x="488" y="709" type="line"/>
      <point x="375" y="323" type="line"/>
      <point x="265" y="709" type="line"/>
      <point x="35" y="709" type="line"/>
    </contour>
  </outline>
</glyph>
<glyph name="X" format="1">
  <advance width="890"/>
  <unicode hex="0058"/>
  <outline>
    <contour>
      <point x="839" y="709" type="line"/>
      <point x="643" y="709" type="line"/>
      <point x="470" y="505" type="line"/>
      <point x="317" y="709" type="line"/>
      <point x="61" y="709" type="line"/>
      <point x="331" y="342" type="line"/>
      <point x="41" y="0" type="line"/>
      <point x="237" y="0" type="line"/>
      <point x="422" y="218" type="line"/>
      <point x="583" y="0" type="line"/>
      <point x="849" y="0" type="line"/>
      <point x="562" y="382" type="line"/>
    </contour>
  </outline>
</glyph>
<glyph name="Y" format="1">
  <advance width="779"/>
  <unicode hex="0059"/>
  <outline>
    <contour>
      <point x="758" y="709" type="line"/>
      <point x="577" y="709" type="line"/>
      <point x="415" y="393" type="line"/>
      <point x="251" y="709" type="line"/>
      <point x="21" y="709" type="line"/>
      <point x="293" y="204" type="line"/>
      <point x="293" y="0" type="line"/>
      <point x="489" y="0" type="line"/>
      <point x="489" y="204" type="line"/>
    </contour>
  </outline>
</glyph>
<glyph name="Z" format="1">
  <advance width="693"/>
  <unicode hex="005A"/>
  <outline>
    <contour>
      <point x="49" y="129" type="line"/>
      <point x="49" y="0" type="line"/>
      <point x="643" y="0" type="line"/>
      <point x="643" y="140" type="line"/>
      <point x="288" y="140" type="line"/>
      <point x="632" y="580" type="line"/>
      <point x="632" y="709" type="line"/>
      <point x="69" y="709" type="line"/>
      <point x="69" y="569" type="line"/>
      <point x="397" y="569" type="line"/>
    </contour>
  </outline>
</glyph>
<glyph name="bracketleft" format="1">
  <advance width="500"/>
  <unicode hex="005B"/>
  <outline>
    <contour>
      <point x="51" y="-40" type="line"/>
      <point x="449" y="-40" type="line"/>
      <point x="449" y="100" type="line"/>
      <point x="247" y="100" type="line"/>
      <point x="247" y="610" type="line"/>
      <point x="449" y="610" type="line"/>
      <point x="449" y="750" type="line"/>
      <point x="51" y="750" type="line"/>
    </contour>
  </outline>
</glyph>
<glyph name="backslash" format="1">
  <advance width="519"/>
  <unicode hex="005C"/>
  <outline>
    <contour>
      <point x="207" y="750" type="line"/>
      <point x="11" y="750" type="line"/>
      <point x="311" y="-40" type="line"/>
      <point x="507" y="-40" type="line"/>
    </contour>
  </outline>
</glyph>
<glyph name="bracketright" format="1">
  <advance width="500"/>
  <unicode hex="005D"/>
  <outline>
    <contour>
      <point x="449" y="750" type="line"/>
      <point x="51" y="750" type="line"/>
      <point x="51" y="610" type="line"/>
      <point x="253" y="610" type="line"/>
      <point x="253" y="100" type="line"/>
      <point x="51" y="100" type="line"/>
      <point x="51" y="-40" type="line"/>
      <point x="449" y="-40" type="line"/>
    </contour>
  </outline>
</glyph>
<glyph name="underscore" format="1">
  <advance width="506"/>
  <unicode hex="005F"/>
  <outline>
    <contour>
      <point x="455" y="-110" type="line"/>
      <point x="455" y="0" type="line"/>
      <point x="51" y="0" type="line"/>
      <point x="51" y="-110" type="line"/>
    </contour>
  </outline>
</glyph>
<glyph name="a" format="1">
  <advance width="764"/>
  <unicode hex="0061"/>
  <outline>
    <contour>
      <point x="42" y="131" type="curve" smooth="yes"/>
      <point x="42" y="15"/>
      <point x="163" y="-23"/>
      <point x="259" y="-23" type="curve" smooth="yes"/>
      <point x="334" y="-23"/>
      <point x="408" y="-3"/>
      <point x="451" y="66" type="curve"/>
      <point x="451" y="66"/>
      <point x="473" y="-13"/>
      <point x="604" y="-13" type="curve" smooth="yes"/>
      <point x="706" y="-13"/>
      <point x="734" y="0"/>
      <point x="734" y="0" type="curve"/>
      <point x="734" y="88" type="line"/>
      <point x="711" y="85"/>
      <point x="692" y="84"/>
      <point x="676" y="84" type="curve" smooth="yes"/>
      <point x="642" y="84"/>
      <point x="625" y="94"/>
      <point x="625" y="133" type="curve" smooth="yes"/>
      <point x="625" y="411" type="line" smooth="yes"/>
      <point x="625" y="542"/>
      <point x="433" y="556"/>
      <point x="342" y="556" type="curve" smooth="yes"/>
      <point x="252" y="556"/>
      <point x="63" y="538"/>
      <point x="63" y="413" type="curve" smooth="yes"/>
      <point x="63" y="379"/>
      <point x="84" y="334"/>
      <point x="84" y="334" type="curve"/>
      <point x="232" y="345" type="line"/>
      <point x="229" y="356"/>
      <point x="229" y="371"/>
      <point x="229" y="380" type="curve" smooth="yes"/>
      <point x="229" y="437"/>
      <point x="265" y="467"/>
      <point x="344" y="467" type="curve" smooth="yes"/>
      <point x="403" y="467"/>
      <point x="443" y="447"/>
      <point x="443" y="401" type="curve" smooth="yes"/>
      <point x="443" y="262"/>
      <point x="42" y="353"/>
    </contour>
    <contour>
      <point x="241" y="137" type="curve"/>
      <point x="250" y="234"/>
      <point x="332" y="219"/>
      <point x="446" y="279" type="curve"/>
      <point x="446" y="165"/>
      <point x="424" y="75"/>
      <point x="307" y="75" type="curve" smooth="yes"/>
      <point x="264" y="75"/>
      <point x="241" y="96"/>
    </contour>
  </outline>
</glyph>
<glyph name="b" format="1">
  <advance width="657"/>
  <unicode hex="0062"/>
  <outline>
    <contour>
      <point x="454" y="268" type="curve" smooth="yes"/>
      <point x="454" y="201"/>
      <point x="447" y="93"/>
      <point x="347" y="93" type="curve" smooth="yes"/>
      <point x="250" y="93"/>
      <point x="232" y="187"/>
      <point x="232" y="268" type="curve" smooth="yes"/>
      <point x="232" y="348"/>
      <point x="249" y="440"/>
      <point x="343" y="440" type="curve" smooth="yes"/>
      <point x="435" y="440"/>
      <point x="454" y="346"/>
    </contour>
    <contour>
      <point x="637" y="270" type="curve" smooth="yes"/>
      <point x="637" y="455"/>
      <point x="515" y="556"/>
      <point x="393" y="556" type="curve" smooth="yes"/>
      <point x="318" y="556"/>
      <point x="253" y="531"/>
      <point x="214" y="463" type="curve"/>
      <point x="214" y="731" type="line"/>
      <point x="51" y="731" type="line"/>
      <point x="51" y="0" type="line"/>
      <point x="174" y="0" type="line"/>
      <point x="194" y="91" type="line"/>
      <point x="223" y="24"/>
      <point x="303" y="-23"/>
      <point x="380" y="-23" type="curve" smooth="yes"/>
      <point x="507" y="-23"/>
      <point x="637" y="41"/>
    </contour>
  </outline>
</glyph>
<glyph name="c" format="1">
  <advance width="695"/>
  <unicode hex="0063"/>
  <outline>
    <contour>
      <point x="36" y="268" type="curve" smooth="yes"/>
      <point x="36" y="50"/>
      <point x="212" y="-23"/>
      <point x="368" y="-23" type="curve" smooth="yes"/>
      <point x="507" y="-23"/>
      <point x="659" y="40"/>
      <point x="659" y="170" type="curve" smooth="yes"/>
      <point x="659" y="185"/>
      <point x="657" y="201"/>
      <point x="653" y="217" type="curve"/>
      <point x="515" y="217" type="line"/>
      <point x="510" y="137"/>
      <point x="472" y="93"/>
      <point x="376" y="93" type="curve" smooth="yes"/>
      <point x="274" y="93"/>
      <point x="237" y="166"/>
      <point x="237" y="268" type="curve" smooth="yes"/>
      <point x="237" y="373"/>
      <point x="274" y="444"/>
      <point x="376" y="444" type="curve" smooth="yes"/>
      <point x="462" y="444"/>
      <point x="487" y="383"/>
      <point x="489" y="317" type="curve"/>
      <point x="641" y="317" type="line"/>
      <point x="643" y="330"/>
      <point x="645" y="343"/>
      <point x="645" y="355" type="curve" smooth="yes"/>
      <point x="645" y="488"/>
      <point x="502" y="556"/>
      <point x="370" y="556" type="curve" smooth="yes"/>
      <point x="192" y="556"/>
      <point x="36" y="449"/>
    </contour>
  </outline>
</glyph>
<glyph name="d" format="1">
  <advance width="657"/>
  <unicode hex="0064"/>
  <outline>
    <contour>
      <point x="203" y="268" type="curve" smooth="yes"/>
      <point x="203" y="346"/>
      <point x="222" y="440"/>
      <point x="314" y="440" type="curve" smooth="yes"/>
      <point x="408" y="440"/>
      <point x="425" y="348"/>
      <point x="425" y="268" type="curve" smooth="yes"/>
      <point x="425" y="187"/>
      <point x="407" y="93"/>
      <point x="310" y="93" type="curve" smooth="yes"/>
      <point x="210" y="93"/>
      <point x="203" y="201"/>
    </contour>
    <contour>
      <point x="20" y="270" type="curve" smooth="yes"/>
      <point x="20" y="41"/>
      <point x="150" y="-23"/>
      <point x="277" y="-23" type="curve" smooth="yes"/>
      <point x="354" y="-23"/>
      <point x="434" y="24"/>
      <point x="463" y="91" type="curve"/>
      <point x="483" y="0" type="line"/>
      <point x="606" y="0" type="line"/>
      <point x="606" y="731" type="line"/>
      <point x="443" y="731" type="line"/>
      <point x="443" y="463" type="line"/>
      <point x="404" y="531"/>
      <point x="339" y="556"/>
      <point x="264" y="556" type="curve" smooth="yes"/>
      <point x="142" y="556"/>
      <point x="20" y="455"/>
    </contour>
  </outline>
</glyph>
<glyph name="e" format="1">
  <advance width="694"/>
  <unicode hex="0065"/>
  <outline>
    <contour>
      <point x="36" y="268" type="curve" smooth="yes"/>
      <point x="36" y="64"/>
      <point x="174" y="-23"/>
      <point x="372" y="-23" type="curve" smooth="yes"/>
      <point x="476" y="-23"/>
      <point x="654" y="19"/>
      <point x="654" y="160" type="curve" smooth="yes"/>
      <point x="654" y="167" type="line"/>
      <point x="496" y="167" type="line"/>
      <point x="495" y="114"/>
      <point x="437" y="88"/>
      <point x="375" y="88" type="curve" smooth="yes"/>
      <point x="298" y="88"/>
      <point x="233" y="129"/>
      <point x="226" y="235" type="curve"/>
      <point x="658" y="235" type="line"/>
      <point x="658" y="434"/>
      <point x="557" y="556"/>
      <point x="355" y="556" type="curve" smooth="yes"/>
      <point x="185" y="556"/>
      <point x="36" y="447"/>
    </contour>
    <contour>
      <point x="228" y="314" type="line"/>
      <point x="231" y="405"/>
      <point x="298" y="448"/>
      <point x="363" y="448" type="curve" smooth="yes"/>
      <point x="423" y="448"/>
      <point x="476" y="411"/>
      <point x="476" y="331" type="curve" smooth="yes"/>
      <point x="476" y="326"/>
      <point x="475" y="320"/>
      <point x="475" y="314" type="curve"/>
    </contour>
  </outline>
</glyph>
<glyph name="f" format="1">
  <advance width="503"/>
  <unicode hex="0066"/>
  <outline>
    <contour>
      <point x="352" y="586" type="curve"/>
      <point x="469" y="586" type="line"/>
      <point x="479" y="602"/>
      <point x="484" y="618"/>
      <point x="484" y="634" type="curve" smooth="yes"/>
      <point x="484" y="696"/>
      <point x="427" y="747"/>
      <point x="314" y="747" type="curve" smooth="yes"/>
      <point x="241" y="747"/>
      <point x="117" y="719"/>
      <point x="117" y="605" type="curve" smooth="yes"/>
      <point x="117" y="536" type="line"/>
      <point x="22" y="536" type="line"/>
      <point x="22" y="450" type="line"/>
      <point x="116" y="450" type="line"/>
      <point x="116" y="0" type="line"/>
      <point x="292" y="0" type="line"/>
      <point x="292" y="450" type="line"/>
      <point x="441" y="450" type="line"/>
      <point x="441" y="536" type="line"/>
      <point x="298" y="536" type="line"/>
      <point x="275" y="570"/>
      <point x="266" y="598"/>
      <point x="266" y="620" type="curve" smooth="yes"/>
      <point x="266" y="647"/>
      <point x="288" y="662"/>
      <point x="310" y="662" type="curve" smooth="yes"/>
      <point x="333" y="662"/>
      <point x="355" y="647"/>
      <point x="355" y="614" type="curve" smooth="yes"/>
      <point x="355" y="606"/>
      <point x="354" y="596"/>
    </contour>
  </outline>
</glyph>
<glyph name="g" format="1">
  <advance width="703"/>
  <unicode hex="0067"/>
  <outline>
    <contour>
      <point x="332" y="205" type="curve" smooth="yes"/>
      <point x="552" y="205"/>
      <point x="620" y="289"/>
      <point x="620" y="381" type="curve" smooth="yes"/>
      <point x="620" y="452"/>
      <point x="575" y="517"/>
      <point x="457" y="543" type="curve"/>
      <point x="586" y="708" type="line"/>
      <point x="450" y="708" type="line"/>
      <point x="425" y="550" type="line"/>
      <point x="397" y="554"/>
      <point x="367" y="556"/>
      <point x="332" y="556" type="curve" smooth="yes"/>
      <point x="120" y="556"/>
      <point x="44" y="473"/>
      <point x="44" y="381" type="curve" smooth="yes"/>
      <point x="44" y="328"/>
      <point x="73" y="277"/>
      <point x="135" y="244" type="curve"/>
      <point x="86" y="231"/>
      <point x="46" y="183"/>
      <point x="46" y="134" type="curve" smooth="yes"/>
      <point x="46" y="74"/>
      <point x="84" y="2"/>
      <point x="192" y="-10" type="curve"/>
      <point x="81" y="-28"/>
      <point x="25" y="-63"/>
      <point x="25" y="-97" type="curve" smooth="yes"/>
      <point x="25" y="-146"/>
      <point x="131" y="-194"/>
      <point x="342" y="-194" type="curve" smooth="yes"/>
      <point x="594" y="-194"/>
      <point x="670" y="-125"/>
      <point x="670" y="-21" type="curve" smooth="yes"/>
      <point x="670" y="62"/>
      <point x="618" y="149"/>
      <point x="432" y="149" type="curve" smooth="yes"/>
      <point x="264" y="149"/>
      <point x="159" y="140"/>
      <point x="159" y="192" type="curve" smooth="yes"/>
      <point x="159" y="208"/>
      <point x="168" y="222"/>
      <point x="185" y="223" type="curve"/>
      <point x="184" y="224" type="line"/>
      <point x="224" y="212"/>
      <point x="273" y="205"/>
    </contour>
    <contour>
      <point x="332" y="299" type="curve" smooth="yes"/>
      <point x="263" y="299"/>
      <point x="227" y="336"/>
      <point x="227" y="383" type="curve" smooth="yes"/>
      <point x="227" y="427"/>
      <point x="261" y="462"/>
      <point x="332" y="462" type="curve" smooth="yes"/>
      <point x="401" y="462"/>
      <point x="438" y="423"/>
      <point x="438" y="378" type="curve" smooth="yes"/>
      <point x="438" y="334"/>
      <point x="404" y="299"/>
    </contour>
    <contour>
      <point x="332" y="-11" type="line" smooth="yes"/>
      <point x="470" y="-11"/>
      <point x="537" y="-32"/>
      <point x="537" y="-52" type="curve" smooth="yes"/>
      <point x="537" y="-76"/>
      <point x="472" y="-100"/>
      <point x="332" y="-100" type="curve" smooth="yes"/>
      <point x="248" y="-100"/>
      <point x="202" y="-77"/>
      <point x="202" y="-51" type="curve" smooth="yes"/>
      <point x="202" y="-38"/>
      <point x="221" y="-22"/>
      <point x="263" y="-11" type="curve"/>
    </contour>
  </outline>
</glyph>
<glyph name="h" format="1">
  <advance width="671"/>
  <unicode hex="0068"/>
  <outline>
    <contour>
      <point x="52" y="726" type="line"/>
      <point x="52" y="0" type="line"/>
      <point x="233" y="0" type="line"/>
      <point x="233" y="81" type="line" smooth="yes"/>
      <point x="233" y="209"/>
      <point x="237" y="430"/>
      <point x="362" y="430" type="curve" smooth="yes"/>
      <point x="462" y="430"/>
      <point x="458" y="354"/>
      <point x="458" y="284" type="curve" smooth="yes"/>
      <point x="458" y="0" type="line"/>
      <point x="645" y="0" type="line"/>
      <point x="645" y="356" type="line" smooth="yes"/>
      <point x="645" y="503"/>
      <point x="554" y="556"/>
      <point x="437" y="556" type="curve" smooth="yes"/>
      <point x="341" y="556"/>
      <point x="277" y="520"/>
      <point x="233" y="440" type="curve"/>
      <point x="233" y="726" type="line"/>
    </contour>
  </outline>
</glyph>
<glyph name="i" format="1">
  <advance width="284"/>
  <unicode hex="0069"/>
  <outline>
    <contour>
      <point x="52" y="537" type="line"/>
      <point x="52" y="0" type="line"/>
      <point x="233" y="0" type="line"/>
      <point x="233" y="537" type="line"/>
    </contour>
    <contour>
      <point x="233" y="731" type="line"/>
      <point x="52" y="731" type="line"/>
      <point x="52" y="597" type="line"/>
      <point x="233" y="597" type="line"/>
    </contour>
  </outline>
</glyph>
<glyph name="j" format="1">
  <advance width="422"/>
  <unicode hex="006A"/>
  <outline>
    <contour>
      <point x="145" y="31" type="curve"/>
      <point x="28" y="31" type="line"/>
      <point x="18" y="15"/>
      <point x="13" y="-1"/>
      <point x="13" y="-17" type="curve" smooth="yes"/>
      <point x="13" y="-79"/>
      <point x="63" y="-130"/>
      <point x="183" y="-130" type="curve" smooth="yes"/>
      <point x="252" y="-130"/>
      <point x="371" y="-102"/>
      <point x="371" y="12" type="curve" smooth="yes"/>
      <point x="371" y="537" type="line"/>
      <point x="195" y="537" type="line"/>
      <point x="195" y="107" type="line" smooth="yes"/>
      <point x="195" y="88"/>
      <point x="202" y="47"/>
      <point x="202" y="13" type="curve" smooth="yes"/>
      <point x="202" y="-20"/>
      <point x="196" y="-45"/>
      <point x="172" y="-45" type="curve" smooth="yes"/>
      <point x="152" y="-45"/>
      <point x="142" y="-28"/>
      <point x="142" y="3" type="curve" smooth="yes"/>
      <point x="142" y="11"/>
      <point x="143" y="22"/>
    </contour>
    <contour>
      <point x="374" y="731" type="line"/>
      <point x="193" y="731" type="line"/>
      <point x="193" y="597" type="line"/>
      <point x="374" y="597" type="line"/>
    </contour>
  </outline>
</glyph>
<glyph name="k" format="1">
  <advance width="679"/>
  <unicode hex="006B"/>
  <outline>
    <contour>
      <point x="233" y="0" type="line"/>
      <point x="233" y="126" type="line"/>
      <point x="323" y="217" type="line"/>
      <point x="457" y="0" type="line"/>
      <point x="668" y="0" type="line"/>
      <point x="447" y="314" type="line"/>
      <point x="668" y="537" type="line"/>
      <point x="437" y="537" type="line"/>
      <point x="233" y="319" type="line"/>
      <point x="233" y="731" type="line"/>
      <point x="52" y="731" type="line"/>
      <point x="52" y="0" type="line"/>
    </contour>
  </outline>
</glyph>
<glyph name="l" format="1">
  <advance width="284"/>
  <unicode hex="006C"/>
  <outline>
    <contour>
      <point x="233" y="0" type="line"/>
      <point x="233" y="731" type="line"/>
      <point x="52" y="731" type="line"/>
      <point x="52" y="0" type="line"/>
    </contour>
  </outline>
</glyph>
<glyph name="m" format="1">
  <advance width="1067"/>
  <unicode hex="006D"/>
  <outline>
    <contour>
      <point x="52" y="536" type="line"/>
      <point x="52" y="0" type="line"/>
      <point x="233" y="0" type="line"/>
      <point x="233" y="81" type="line" smooth="yes"/>
      <point x="233" y="209"/>
      <point x="237" y="430"/>
      <point x="352" y="430" type="curve" smooth="yes"/>
      <point x="442" y="430"/>
      <point x="438" y="354"/>
      <point x="438" y="284" type="curve" smooth="yes"/>
      <point x="438" y="0" type="line"/>
      <point x="625" y="0" type="line"/>
      <point x="625" y="122" type="line" smooth="yes"/>
      <point x="625" y="251"/>
      <point x="641" y="430"/>
      <point x="744" y="430" type="curve" smooth="yes"/>
      <point x="834" y="430"/>
      <point x="830" y="354"/>
      <point x="830" y="284" type="curve" smooth="yes"/>
      <point x="830" y="0" type="line"/>
      <point x="1017" y="0" type="line"/>
      <point x="1017" y="356" type="line" smooth="yes"/>
      <point x="1017" y="503"/>
      <point x="926" y="556"/>
      <point x="809" y="556" type="curve" smooth="yes"/>
      <point x="716" y="556"/>
      <point x="653" y="522"/>
      <point x="609" y="448" type="curve"/>
      <point x="579" y="526"/>
      <point x="505" y="556"/>
      <point x="417" y="556" type="curve" smooth="yes"/>
      <point x="321" y="556"/>
      <point x="257" y="520"/>
      <point x="213" y="440" type="curve"/>
      <point x="183" y="536" type="line"/>
    </contour>
  </outline>
</glyph>
<glyph name="n" format="1">
  <advance width="691"/>
  <unicode hex="006E"/>
  <outline>
    <contour>
      <point x="50" y="536" type="line"/>
      <point x="50" y="0" type="line"/>
      <point x="231" y="0" type="line"/>
      <point x="231" y="81" type="line" smooth="yes"/>
      <point x="231" y="209"/>
      <point x="235" y="430"/>
      <point x="360" y="430" type="curve" smooth="yes"/>
      <point x="460" y="430"/>
      <point x="456" y="354"/>
      <point x="456" y="284" type="curve" smooth="yes"/>
      <point x="456" y="0" type="line"/>
      <point x="643" y="0" type="line"/>
      <point x="643" y="356" type="line" smooth="yes"/>
      <point x="643" y="503"/>
      <point x="552" y="556"/>
      <point x="435" y="556" type="curve" smooth="yes"/>
      <point x="329" y="556"/>
      <point x="259" y="520"/>
      <point x="211" y="440" type="curve"/>
      <point x="181" y="536" type="line"/>
    </contour>
  </outline>
</glyph>
<glyph name="o" format="1">
  <advance width="742"/>
  <unicode hex="006F"/>
  <outline>
    <contour>
      <point x="371" y="93" type="curve" smooth="yes"/>
      <point x="266" y="93"/>
      <point x="235" y="176"/>
      <point x="235" y="268" type="curve" smooth="yes"/>
      <point x="235" y="356"/>
      <point x="266" y="440"/>
      <point x="371" y="440" type="curve" smooth="yes"/>
      <point x="476" y="440"/>
      <point x="507" y="356"/>
      <point x="507" y="268" type="curve" smooth="yes"/>
      <point x="507" y="176"/>
      <point x="476" y="93"/>
    </contour>
    <contour>
      <point x="371" y="-23" type="curve" smooth="yes"/>
      <point x="546" y="-23"/>
      <point x="706" y="77"/>
      <point x="706" y="268" type="curve" smooth="yes"/>
      <point x="706" y="454"/>
      <point x="546" y="556"/>
      <point x="371" y="556" type="curve" smooth="yes"/>
      <point x="196" y="556"/>
      <point x="36" y="454"/>
      <point x="36" y="268" type="curve" smooth="yes"/>
      <point x="36" y="77"/>
      <point x="196" y="-23"/>
    </contour>
  </outline>
</glyph>
<glyph name="p" format="1">
  <advance width="659"/>
  <unicode hex="0070"/>
  <outline>
    <contour>
      <point x="638" y="263" type="curve" smooth="yes"/>
      <point x="638" y="492"/>
      <point x="508" y="556"/>
      <point x="381" y="556" type="curve" smooth="yes"/>
      <point x="304" y="556"/>
      <point x="224" y="506"/>
      <point x="195" y="439" type="curve"/>
      <point x="175" y="536" type="line"/>
      <point x="52" y="536" type="line"/>
      <point x="52" y="-177" type="line"/>
      <point x="215" y="-177" type="line"/>
      <point x="215" y="70" type="line"/>
      <point x="254" y="2"/>
      <point x="315" y="-23"/>
      <point x="390" y="-23" type="curve" smooth="yes"/>
      <point x="512" y="-23"/>
      <point x="638" y="78"/>
    </contour>
    <contour>
      <point x="455" y="265" type="curve" smooth="yes"/>
      <point x="455" y="192"/>
      <point x="436" y="103"/>
      <point x="344" y="103" type="curve" smooth="yes"/>
      <point x="250" y="103"/>
      <point x="233" y="190"/>
      <point x="233" y="265" type="curve" smooth="yes"/>
      <point x="233" y="341"/>
      <point x="251" y="430"/>
      <point x="348" y="430" type="curve" smooth="yes"/>
      <point x="448" y="430"/>
      <point x="455" y="328"/>
    </contour>
  </outline>
</glyph>
<glyph name="q" format="1">
  <advance width="658"/>
  <unicode hex="0071"/>
  <outline>
    <contour>
      <point x="204" y="265" type="curve" smooth="yes"/>
      <point x="204" y="328"/>
      <point x="211" y="430"/>
      <point x="311" y="430" type="curve" smooth="yes"/>
      <point x="408" y="430"/>
      <point x="426" y="341"/>
      <point x="426" y="265" type="curve" smooth="yes"/>
      <point x="426" y="190"/>
      <point x="409" y="103"/>
      <point x="315" y="103" type="curve" smooth="yes"/>
      <point x="223" y="103"/>
      <point x="204" y="192"/>
    </contour>
    <contour>
      <point x="21" y="263" type="curve" smooth="yes"/>
      <point x="21" y="78"/>
      <point x="147" y="-23"/>
      <point x="269" y="-23" type="curve" smooth="yes"/>
      <point x="344" y="-23"/>
      <point x="405" y="2"/>
      <point x="444" y="70" type="curve"/>
      <point x="444" y="-177" type="line"/>
      <point x="607" y="-177" type="line"/>
      <point x="607" y="536" type="line"/>
      <point x="484" y="536" type="line"/>
      <point x="464" y="439" type="line"/>
      <point x="435" y="506"/>
      <point x="355" y="556"/>
      <point x="278" y="556" type="curve" smooth="yes"/>
      <point x="151" y="556"/>
      <point x="21" y="492"/>
    </contour>
  </outline>
</glyph>
<glyph name="r" format="1">
  <advance width="573"/>
  <unicode hex="0072"/>
  <outline>
    <contour>
      <point x="51" y="536" type="line"/>
      <point x="51" y="0" type="line"/>
      <point x="231" y="0" type="line"/>
      <point x="231" y="94" type="line" smooth="yes"/>
      <point x="231" y="179"/>
      <point x="226" y="423"/>
      <point x="355" y="423" type="curve" smooth="yes"/>
      <point x="371" y="423"/>
      <point x="411" y="410"/>
      <point x="411" y="335" type="curve" smooth="yes"/>
      <point x="411" y="314"/>
      <point x="408" y="289"/>
      <point x="401" y="258" type="curve"/>
      <point x="535" y="258" type="line"/>
      <point x="549" y="295"/>
      <point x="558" y="341"/>
      <point x="558" y="386" type="curve" smooth="yes"/>
      <point x="558" y="473"/>
      <point x="523" y="556"/>
      <point x="417" y="556" type="curve" smooth="yes"/>
      <point x="335" y="556"/>
      <point x="265" y="506"/>
      <point x="231" y="432" type="curve"/>
      <point x="231" y="536" type="line"/>
    </contour>
  </outline>
</glyph>
<glyph name="s" format="1">
  <advance width="603"/>
  <unicode hex="0073"/>
  <outline>
    <contour>
      <point x="34" y="73" type="line"/>
      <point x="135" y="5"/>
      <point x="235" y="-23"/>
      <point x="348" y="-23" type="curve" smooth="yes"/>
      <point x="452" y="-23"/>
      <point x="565" y="35"/>
      <point x="565" y="152" type="curve" smooth="yes"/>
      <point x="565" y="352"/>
      <point x="212" y="322"/>
      <point x="212" y="405" type="curve" smooth="yes"/>
      <point x="212" y="428"/>
      <point x="239" y="436"/>
      <point x="277" y="436" type="curve" smooth="yes"/>
      <point x="348" y="436"/>
      <point x="454" y="404"/>
      <point x="500" y="368" type="curve"/>
      <point x="554" y="476" type="line"/>
      <point x="467" y="532"/>
      <point x="381" y="554"/>
      <point x="280" y="556" type="curve"/>
      <point x="150" y="556"/>
      <point x="57" y="501"/>
      <point x="57" y="381" type="curve" smooth="yes"/>
      <point x="57" y="189"/>
      <point x="401" y="208"/>
      <point x="401" y="138" type="curve" smooth="yes"/>
      <point x="401" y="110"/>
      <point x="375" y="100"/>
      <point x="336" y="100" type="curve" smooth="yes"/>
      <point x="267" y="100"/>
      <point x="165" y="135"/>
      <point x="95" y="178" type="curve"/>
    </contour>
  </outline>
</glyph>
<glyph name="t" format="1">
  <advance width="499"/>
  <unicode hex="0074"/>
  <outline>
    <contour>
      <point x="116" y="451" type="line"/>
      <point x="116" y="125" type="line" smooth="yes"/>
      <point x="116" y="11"/>
      <point x="258" y="-13"/>
      <point x="328" y="-13" type="curve" smooth="yes"/>
      <point x="420" y="-13"/>
      <point x="477" y="2"/>
      <point x="477" y="2" type="curve"/>
      <point x="477" y="93" type="line"/>
      <point x="460" y="90"/>
      <point x="426" y="86"/>
      <point x="391" y="86" type="curve" smooth="yes"/>
      <point x="344" y="86"/>
      <point x="297" y="97"/>
      <point x="297" y="137" type="curve" smooth="yes"/>
      <point x="297" y="451" type="line"/>
      <point x="460" y="451" type="line"/>
      <point x="460" y="537" type="line"/>
      <point x="291" y="537" type="line"/>
      <point x="291" y="753" type="line"/>
      <point x="122" y="753" type="line"/>
      <point x="122" y="537" type="line"/>
      <point x="21" y="537" type="line"/>
      <point x="21" y="451" type="line"/>
    </contour>
  </outline>
</glyph>
<glyph name="u" format="1">
  <advance width="691"/>
  <unicode hex="0075"/>
  <outline>
    <contour>
      <point x="641" y="0" type="line"/>
      <point x="641" y="536" type="line"/>
      <point x="460" y="536" type="line"/>
      <point x="460" y="278" type="line" smooth="yes"/>
      <point x="460" y="214"/>
      <point x="456" y="99"/>
      <point x="331" y="99" type="curve" smooth="yes"/>
      <point x="231" y="99"/>
      <point x="235" y="175"/>
      <point x="235" y="245" type="curve" smooth="yes"/>
      <point x="235" y="536" type="line"/>
      <point x="48" y="536" type="line"/>
      <point x="48" y="197" type="line" smooth="yes"/>
      <point x="48" y="36"/>
      <point x="141" y="-23"/>
      <point x="270" y="-23" type="curve" smooth="yes"/>
      <point x="366" y="-23"/>
      <point x="436" y="15"/>
      <point x="480" y="95" type="curve"/>
      <point x="530" y="0" type="line"/>
    </contour>
  </outline>
</glyph>
<glyph name="v" format="1">
  <advance width="732"/>
  <unicode hex="0076"/>
  <outline>
    <contour>
      <point x="23" y="537" type="line"/>
      <point x="288" y="-5" type="line"/>
      <point x="446" y="-5" type="line"/>
      <point x="709" y="537" type="line"/>
      <point x="542" y="537" type="line"/>
      <point x="385" y="188" type="line"/>
      <point x="230" y="537" type="line"/>
    </contour>
  </outline>
</glyph>
<glyph name="w" format="1">
  <advance width="947"/>
  <unicode hex="0077"/>
  <outline>
    <contour>
      <point x="35" y="537" type="line"/>
      <point x="210" y="-5" type="line"/>
      <point x="374" y="-5" type="line"/>
      <point x="474" y="323" type="line"/>
      <point x="577" y="-5" type="line"/>
      <point x="745" y="-5" type="line"/>
      <point x="911" y="537" type="line"/>
      <point x="761" y="537" type="line"/>
      <point x="674" y="188" type="line"/>
      <point x="581" y="537" type="line"/>
      <point x="414" y="537" type="line"/>
      <point x="317" y="188" type="line"/>
      <point x="232" y="537" type="line"/>
    </contour>
  </outline>
</glyph>
<glyph name="x" format="1">
  <advance width="780"/>
  <unicode hex="0078"/>
  <outline>
    <contour>
      <point x="54" y="537" type="line"/>
      <point x="286" y="262" type="line"/>
      <point x="42" y="0" type="line"/>
      <point x="232" y="0" type="line"/>
      <point x="376" y="155" type="line"/>
      <point x="508" y="0" type="line"/>
      <point x="738" y="0" type="line"/>
      <point x="496" y="285" type="line"/>
      <point x="731" y="537" type="line"/>
      <point x="544" y="537" type="line"/>
      <point x="407" y="390" type="line"/>
      <point x="283" y="537" type="line"/>
    </contour>
  </outline>
</glyph>
<glyph name="y" format="1">
  <advance width="740"/>
  <unicode hex="0079"/>
  <outline>
    <contour>
      <point x="39" y="537" type="line"/>
      <point x="291" y="0" type="line" smooth="yes"/>
      <point x="307" y="-30"/>
      <point x="317" y="-59"/>
      <point x="317" y="-81" type="curve" smooth="yes"/>
      <point x="317" y="-112"/>
      <point x="304" y="-132"/>
      <point x="276" y="-132" type="curve" smooth="yes"/>
      <point x="253" y="-132"/>
      <point x="235" y="-115"/>
      <point x="235" y="-72" type="curve" smooth="yes"/>
      <point x="235" y="-67"/>
      <point x="235" y="-41"/>
      <point x="236" y="-36" type="curve"/>
      <point x="110" y="-47" type="line"/>
      <point x="110" y="-47"/>
      <point x="89" y="-81"/>
      <point x="89" y="-115" type="curve" smooth="yes"/>
      <point x="89" y="-222"/>
      <point x="202" y="-238"/>
      <point x="280" y="-238" type="curve" smooth="yes"/>
      <point x="472" y="-238"/>
      <point x="468" y="-109"/>
      <point x="513" y="5" type="curve" smooth="yes"/>
      <point x="721" y="537" type="line"/>
      <point x="544" y="537" type="line"/>
      <point x="407" y="142" type="line"/>
      <point x="242" y="537" type="line"/>
    </contour>
  </outline>
</glyph>
<glyph name="z" format="1">
  <advance width="561"/>
  <unicode hex="007A"/>
  <outline>
    <contour>
      <point x="30" y="91" type="line"/>
      <point x="30" y="15" type="line"/>
      <point x="30" y="12"/>
      <point x="94" y="2"/>
      <point x="121" y="0" type="curve"/>
      <point x="183" y="-2"/>
      <point x="469" y="-6"/>
      <point x="530" y="-6" type="curve"/>
      <point x="530" y="91" type="line"/>
      <point x="501" y="94"/>
      <point x="363" y="105"/>
      <point x="333" y="106" type="curve"/>
      <point x="322" y="106"/>
      <point x="269" y="105"/>
      <point x="257" y="105" type="curve"/>
      <point x="257" y="121" type="line"/>
      <point x="292" y="162"/>
      <point x="451" y="353"/>
      <point x="485" y="394" type="curve"/>
      <point x="498" y="409"/>
      <point x="530" y="452"/>
      <point x="530" y="455" type="curve"/>
      <point x="532" y="456"/>
      <point x="533" y="488"/>
      <point x="533" y="500" type="curve"/>
      <point x="533" y="508"/>
      <point x="532" y="539"/>
      <point x="530" y="545" type="curve"/>
      <point x="60" y="561" type="line"/>
      <point x="56" y="561"/>
      <point x="45" y="550"/>
      <point x="45" y="545" type="curve"/>
      <point x="44" y="530"/>
      <point x="39" y="462"/>
      <point x="39" y="447" type="curve"/>
      <point x="318" y="447" type="line"/>
    </contour>
  </outline>
</glyph>
<glyph name="acute" format="1">
  <advance width="341"/>
  <unicode hex="00B4"/>
  <outline>
    <contour>
      <point x="114" y="594" type="line"/>
      <point x="334" y="708" type="line"/>
      <point x="158" y="708" type="line"/>
      <point x="23" y="594" type="line"/>
    </contour>
  </outline>
</glyph>
<glyph name="mu" format="1">
  <advance width="697"/>
  <unicode hex="00B5"/>
  <unicode hex="03BC"/>
  <outline>
    <contour>
      <point x="54" y="-100" type="line" smooth="yes"/>
      <point x="54" y="-161"/>
      <point x="101" y="-188"/>
      <point x="146" y="-188" type="curve" smooth="yes"/>
      <point x="191" y="-188"/>
      <point x="234" y="-163"/>
      <point x="234" y="-116" type="curve" smooth="yes"/>
      <point x="234" y="-109"/>
      <point x="233" y="-101"/>
      <point x="231" y="-93" type="curve" smooth="yes"/>
      <point x="190" y="61" type="line"/>
      <point x="216" y="1"/>
      <point x="262" y="-23"/>
      <point x="310" y="-23" type="curve" smooth="yes"/>
      <point x="384" y="-23"/>
      <point x="464" y="33"/>
      <point x="486" y="95" type="curve"/>
      <point x="536" y="0" type="line"/>
      <point x="647" y="0" type="line"/>
      <point x="647" y="536" type="line"/>
      <point x="466" y="536" type="line"/>
      <point x="466" y="278" type="line" smooth="yes"/>
      <point x="466" y="214"/>
      <point x="462" y="99"/>
      <point x="337" y="99" type="curve" smooth="yes"/>
      <point x="237" y="99"/>
      <point x="241" y="175"/>
      <point x="241" y="245" type="curve" smooth="yes"/>
      <point x="241" y="536" type="line"/>
      <point x="54" y="536" type="line"/>
    </contour>
  </outline>
</glyph>
<glyph name="OE" format="1">
  <advance width="1151"/>
  <unicode hex="0152"/>
  <outline>
    <contour>
      <point x="503" y="0" type="line"/>
      <point x="1102" y="0" type="line"/>
      <point x="1102" y="136" type="line"/>
      <point x="707" y="136" type="line"/>
      <point x="707" y="301" type="line"/>
      <point x="1016" y="301" type="line"/>
      <point x="1016" y="422" type="line"/>
      <point x="707" y="422" type="line"/>
      <point x="707" y="583" type="line"/>
      <point x="1083" y="583" type="line"/>
      <point x="1083" y="709" type="line"/>
      <point x="503" y="709" type="line"/>
      <point x="502" y="709" type="line"/>
      <point x="224" y="709"/>
      <point x="39" y="573"/>
      <point x="39" y="350" type="curve" smooth="yes"/>
      <point x="39" y="133"/>
      <point x="224" y="0"/>
      <point x="502" y="0" type="curve"/>
    </contour>
    <contour>
      <point x="252" y="351" type="curve" smooth="yes"/>
      <point x="252" y="473"/>
      <point x="319" y="581"/>
      <point x="502" y="581" type="curve"/>
      <point x="503" y="581" type="line"/>
      <point x="503" y="128" type="line"/>
      <point x="502" y="128" type="line"/>
      <point x="301" y="128"/>
      <point x="252" y="233"/>
    </contour>
  </outline>
</glyph>
<glyph name="oe" format="1">
  <advance width="1168"/>
  <unicode hex="0153"/>
  <outline>
    <contour>
      <point x="367" y="-23" type="curve" smooth="yes"/>
      <point x="453" y="-23"/>
      <point x="535" y="0"/>
      <point x="597" y="46" type="curve"/>
      <point x="657" y="-1"/>
      <point x="740" y="-23"/>
      <point x="840" y="-23" type="curve" smooth="yes"/>
      <point x="944" y="-23"/>
      <point x="1122" y="19"/>
      <point x="1122" y="160" type="curve" smooth="yes"/>
      <point x="1122" y="167" type="line"/>
      <point x="964" y="167" type="line"/>
      <point x="963" y="114"/>
      <point x="905" y="88"/>
      <point x="843" y="88" type="curve" smooth="yes"/>
      <point x="772" y="88"/>
      <point x="712" y="122"/>
      <point x="697" y="210" type="curve"/>
      <point x="700" y="235" type="line"/>
      <point x="1126" y="235" type="line"/>
      <point x="1126" y="434"/>
      <point x="1025" y="556"/>
      <point x="823" y="556" type="curve" smooth="yes"/>
      <point x="740" y="556"/>
      <point x="661" y="521"/>
      <point x="603" y="462" type="curve"/>
      <point x="543" y="522"/>
      <point x="462" y="556"/>
      <point x="377" y="556" type="curve" smooth="yes"/>
      <point x="202" y="556"/>
      <point x="42" y="454"/>
      <point x="42" y="268" type="curve" smooth="yes"/>
      <point x="42" y="77"/>
      <point x="197" y="-23"/>
    </contour>
    <contour>
      <point x="377" y="93" type="curve" smooth="yes"/>
      <point x="272" y="93"/>
      <point x="241" y="176"/>
      <point x="241" y="268" type="curve" smooth="yes"/>
      <point x="241" y="356"/>
      <point x="272" y="440"/>
      <point x="377" y="440" type="curve" smooth="yes"/>
      <point x="474" y="440"/>
      <point x="503" y="356"/>
      <point x="503" y="268" type="curve" smooth="yes"/>
      <point x="503" y="176"/>
      <point x="474" y="93"/>
    </contour>
    <contour>
      <point x="831" y="448" type="curve" smooth="yes"/>
      <point x="891" y="448"/>
      <point x="944" y="411"/>
      <point x="944" y="331" type="curve" smooth="yes"/>
      <point x="944" y="326"/>
      <point x="943" y="320"/>
      <point x="943" y="314" type="curve"/>
      <point x="698" y="314" type="line"/>
      <point x="698" y="317"/>
      <point x="697" y="321"/>
      <point x="697" y="325" type="curve" smooth="yes"/>
      <point x="705" y="408"/>
      <point x="768" y="448"/>
    </contour>
  </outline>
</glyph>
<glyph name="circumflex" format="1">
  <advance width="440"/>
  <unicode hex="02C6"/>
  <outline>
    <contour>
      <point x="118" y="594" type="line"/>
      <point x="220" y="652" type="line"/>
      <point x="322" y="594" type="line"/>
      <point x="413" y="594" type="line"/>
      <point x="278" y="718" type="line"/>
      <point x="162" y="718" type="line"/>
      <point x="27" y="594" type="line"/>
    </contour>
  </outline>
</glyph>
<glyph name="quoteleft" format="1">
  <advance width="272"/>
  <unicode hex="2018"/>
  <outline>
    <contour>
      <point x="222" y="731" type="line"/>
      <point x="153" y="731"/>
      <point x="36" y="697"/>
      <point x="36" y="559" type="curve" smooth="yes"/>
      <point x="36" y="400" type="line"/>
      <point x="222" y="400" type="line"/>
      <point x="222" y="571" type="line"/>
      <point x="153" y="571" type="line"/>
      <point x="153" y="593"/>
      <point x="156" y="612"/>
      <point x="222" y="634" type="curve"/>
    </contour>
  </outline>
</glyph>
<glyph name="quotedblleft" format="1">
  <advance width="533"/>
  <unicode hex="201C"/>
  <outline>
    <contour>
      <point x="231" y="731" type="line"/>
      <point x="162" y="731"/>
      <point x="45" y="697"/>
      <point x="45" y="559" type="curve" smooth="yes"/>
      <point x="45" y="400" type="line"/>
      <point x="231" y="400" type="line"/>
      <point x="231" y="571" type="line"/>
      <point x="162" y="571" type="line"/>
      <point x="162" y="593"/>
      <point x="165" y="612"/>
      <point x="231" y="634" type="curve"/>
    </contour>
    <contour>
      <point x="482" y="731" type="line"/>
      <point x="413" y="731"/>
      <point x="296" y="697"/>
      <point x="296" y="559" type="curve" smooth="yes"/>
      <point x="296" y="400" type="line"/>
      <point x="482" y="400" type="line"/>
      <point x="482" y="571" type="line"/>
      <point x="413" y="571" type="line"/>
      <point x="413" y="593"/>
      <point x="416" y="612"/>
      <point x="482" y="634" type="curve"/>
    </contour>
  </outline>
</glyph>
<glyph name="quotedblright" format="1">
  <advance width="537"/>
  <unicode hex="201D"/>
  <outline>
    <contour>
      <point x="51" y="377" type="line"/>
      <point x="120" y="377"/>
      <point x="237" y="411"/>
      <point x="237" y="549" type="curve" smooth="yes"/>
      <point x="237" y="708" type="line"/>
      <point x="51" y="708" type="line"/>
      <point x="51" y="537" type="line"/>
      <point x="120" y="537" type="line"/>
      <point x="120" y="515"/>
      <point x="117" y="496"/>
      <point x="51" y="474" type="curve"/>
    </contour>
    <contour>
      <point x="307" y="377" type="line"/>
      <point x="376" y="377"/>
      <point x="493" y="411"/>
      <point x="493" y="549" type="curve" smooth="yes"/>
      <point x="493" y="708" type="line"/>
      <point x="307" y="708" type="line"/>
      <point x="307" y="537" type="line"/>
      <point x="376" y="537" type="line"/>
      <point x="376" y="515"/>
      <point x="373" y="496"/>
      <point x="307" y="474" type="curve"/>
    </contour>
  </outline>
</glyph>
